<?xml version="1.0" encoding="utf-8"?><svg width="188" height="126" viewBox="0 0 188 126" xmlns="http://www.w3.org/2000/svg" xmlns:xlink="http://www.w3.org/1999/xlink"><svg width="14" height="11" viewBox="0 0 14 11" id="icon-check-black" x="72" y="49"><path d="M4.1 11L0 7.1l1.4-1.4 4.1 3.9"/><path d="M4.1 11L2.6 9.6l10-9.6L14 1.4"/></svg><svg id="icon-cross-red" viewBox="0 0 22 22" width="22" height="22" x="32" y="48"><style>.bst0{fill:none;stroke:#ed237a;stroke-miterlimit:10}</style><path class="bst0" d="M1 .5L21.5 21M21.5.5L1 21"/></svg><svg id="icon-dash-red" viewBox="0 0 17 1" width="17" height="1" x="72" y="48"><style>.cst0{fill:none;stroke:#ed237a;stroke-miterlimit:10}</style><path class="cst0" d="M0 .5h17"/></svg><svg id="icon-dash-white" viewBox="1 10 17 1" width="17" height="1" x="89" y="48"><style>.dst0{fill:none;stroke:#fff;stroke-miterlimit:10}</style><path class="dst0" d="M1 10.5h17"/></svg><svg id="icon-dropdown-dark" viewBox="0 0 13 7" width="13" height="7" x="99" y="49"><style>.est0{fill:#4e4e4e}</style><g id="eXMLID_2_"><path id="eXMLID_3_" class="est0" d="M12 1.5L6.8 6.7c-.1.1-.2.1-.3.1s-.2 0-.3-.1L1 1.5c0-.1-.1-.2-.1-.2 0-.1.1-.2.1-.3l.6-.6c.1-.1.2-.1.3-.1.1 0 .2 0 .3.1l4.4 4.4L11 .4c.1-.1.2-.1.3-.1.1 0 .2 0 .3.1l.4.6c.1.1.1.2.1.3 0 0-.1.1-.1.2z"/></g></svg><svg id="icon-dropdown-white" viewBox="0 0 13 7" width="13" height="7" x="86" y="49"><style>.fst0{fill:#fff}</style><g id="fXMLID_2_"><path id="fXMLID_3_" class="fst0" d="M12 1.5L6.8 6.7c-.1.1-.2.1-.3.1s-.2 0-.3-.1L1 1.5c0-.1-.1-.2-.1-.2 0-.1.1-.2.1-.3l.6-.6c.1-.1.2-.1.3-.1.1 0 .2 0 .3.1l4.4 4.4L11 .4c.1-.1.2-.1.3-.1.1 0 .2 0 .3.1l.4.6c.1.1.1.2.1.3 0 0-.1.1-.1.2z"/></g></svg><svg id="icon-filter-arrow-select" viewBox="0 0 13 10" width="13" height="10" x="154" y="71"><style>.gst0{fill:#4e4e4e}</style><g id="gXMLID_2_"><path id="gXMLID_12_" class="gst0" d="M.9 1.7C.6 1.2.8 1 1.4 1h10.2c.6 0 .8.2.5.7L7 9.2c-.3.5-.8.5-1.1 0l-5-7.5z"/></g></svg><svg id="icon-filter-arrow-table" viewBox="0 0 10 8" width="10" height="8" x="54" y="62"><style>.hst0{fill:#4e4e4e}</style><g id="hXMLID_2_"><path id="hXMLID_12_" class="hst0" d="M1.3 1.9c-.3-.4-.1-.9.4-.9h6.6c.5 0 .7.5.4.9l-3.2 5c-.3.5-.8.4-1.1 0l-3.1-5z"/></g></svg><svg width="16" height="16" viewBox="0 0 16 16" id="icon-minus-green" x="46" y="71"><path fill="#24B574" d="M0 7h16v2H0z"/></svg><svg width="16" height="16" viewBox="0 0 16 16" id="icon-minus-red" x="62" y="71"><path fill="#ED237A" d="M0 7h16v2H0z"/></svg><svg width="16" height="16" viewBox="0 0 16 16" id="icon-minus-white" x="78" y="71"><path fill="#FFF" d="M0 7h16v2H0z"/></svg><svg id="icon-notification-cross" viewBox="0 0 28 28" width="28" height="28" y="98"><style>.lst0{fill:none;stroke:#fff;stroke-width:3;stroke-miterlimit:10}</style><path class="lst0" d="M1.5 1.5l25 25M26.5 1.5l-25 25"/></svg><svg id="icon-notification-exclamation" viewBox="0 0 30 27" width="30" height="27" y="71"><style>.mst0{fill:#fff}</style><g id="mXMLID_2_"><path id="mXMLID_3_" class="mst0" d="M28.8 23.7c.3.6.3 1.4 0 2-.4.6-1 1-1.7 1H3c-.7 0-1.4-.4-1.7-1-.4-.6-.4-1.4 0-2l12-22c.3-.6 1-1 1.8-1s1.4.4 1.8 1l11.9 22zM17.3 9.1c0-.1 0-.2-.2-.3-.1-.1-.2-.2-.4-.2h-3.4c-.1 0-.3.1-.4.2-.1.1-.2.2-.2.3l.3 7.2c0 .2.2.4.5.4h2.9c.3 0 .5-.2.5-.4l.4-7.2zM17 19.2c0-.3-.2-.5-.5-.5h-3c-.3 0-.5.2-.5.5v3c0 .3.2.5.5.5h3c.3 0 .5-.2.5-.5v-3z"/></g></svg><svg id="icon-notification-tick" viewBox="0 0 32 23" width="32" height="23" y="48"><style>.nst0{fill:none;stroke:#fff;stroke-width:3;stroke-miterlimit:10}</style><path class="nst0" d="M1.5 10.4l10.7 10.8M30.3 1.8L11 21.2"/></svg><svg width="14" height="14" viewBox="0 0 14 14" id="icon-pencil-green" x="126" y="71"><path fill="#3DB54A" d="M11.5 6.3L3.8 14H0v-3.8l7.7-7.7 3.8 3.8zM4.2 12L2 9.8l-.8.8v1h1.2v1.2h1l.8-.8zM8 4c-.1 0-.1 0-.2.1l-5 5s-.1.1-.1.2.1.2.2.2.1 0 .2-.1l5-5s.1-.1.1-.2S8.1 4 8 4zm5.7.2l-1.5 1.5-3.9-3.8L9.8.4c.2-.3.5-.4.8-.4.3 0 .6.1.8.4l2.2 2.2c.3.1.4.4.4.8s-.1.6-.3.8z"/></svg><svg width="14" height="14" viewBox="0 0 14 14" id="icon-pencil-white" x="140" y="71"><path fill="#FFF" d="M11.5 6.3L3.8 14H0v-3.8l7.7-7.7 3.8 3.8zM4.2 12L2 9.8l-.8.8v1h1.2v1.2h1l.8-.8zM8 4c-.1 0-.1 0-.2.1l-5 5s-.1.1-.1.2.1.2.2.2.1 0 .2-.1l5-5s.1-.1.1-.2S8.1 4 8 4zm5.7.2l-1.5 1.5-3.9-3.8L9.8.4c.2-.3.5-.4.8-.4.3 0 .6.1.8.4l2.2 2.2c.3.1.4.4.4.8s-.1.6-.3.8z"/></svg><svg width="16" height="16" viewBox="0 0 16 16" id="icon-plus-green" x="110" y="71"><path fill="#24B574" d="M0 7h16v2H0z"/><path fill="#24B574" d="M7 0h2v16H7z"/></svg><svg width="16" height="16" viewBox="0 0 16 16" id="icon-plus-red" x="94" y="71"><path fill="#ED237A" d="M0 7h16v2H0z"/><path fill="#ED237A" d="M7 0h2v16H7z"/></svg><svg width="16" height="16" viewBox="0 0 16 16" id="icon-plus-white" x="30" y="71"><path fill="#FFF" d="M0 7h16v2H0z"/><path fill="#FFF" d="M7 0h2v16H7z"/></svg><svg width="11.1" height="10.3" viewBox="0 0 11.1 10.3" id="icon-print-blue" x="30" y="87"><path fill="#2AAAE2" d="M11.1 8.4c0 .1-.1.2-.2.2H9.4v1.1c0 .4-.3.6-.6.6H2.4c-.4 0-.7-.3-.7-.7v-1H.2c-.1 0-.2-.1-.2-.2V5.6c0-.7.6-1.3 1.3-1.3h.4V.6c0-.3.3-.6.7-.6h4.5c.3 0 .8.2 1.1.5l1 1c.3.3.5.7.5 1.1v1.7h.4c.7 0 1.3.6 1.3 1.3v2.8zM8.6 5.1V2.6H7.5c-.4 0-.6-.3-.6-.6V.9H2.6v4.3h6zm0 4.3V7.7h-6v1.7h6zm1.3-4.3c-.2 0-.4.2-.4.4s.1.5.4.5.4-.2.4-.4-.2-.5-.4-.5z"/></svg><svg width="11.1" height="10.3" viewBox="0 0 11.1 10.3" id="icon-print-white" x="41.1" y="87"><path fill="#FFF" d="M11.1 8.4c0 .1-.1.2-.2.2H9.4v1.1c0 .4-.3.6-.6.6H2.4c-.4 0-.7-.3-.7-.7v-1H.2c-.1 0-.2-.1-.2-.2V5.6c0-.7.6-1.3 1.3-1.3h.4V.6c0-.3.3-.6.7-.6h4.5c.3 0 .8.2 1.1.5l1 1c.3.3.5.7.5 1.1v1.7h.4c.7 0 1.3.6 1.3 1.3v2.8zM8.6 5.1V2.6H7.5c-.4 0-.6-.3-.6-.6V.9H2.6v4.3h6zm0 4.3V7.7h-6v1.7h6zm1.3-4.3c-.2 0-.4.2-.4.4s.1.5.4.5.4-.2.4-.4-.2-.5-.4-.5z"/></svg><svg id="icon-tick-white" viewBox="0 0 18 14" width="18" height="14" x="54" y="48"><style>.vst0{fill:none;stroke:#fff;stroke-width:2;stroke-miterlimit:10}</style><path class="vst0" d="M.8 6.2l6.1 6M17 1.3L6.1 12.2"/></svg><svg viewBox="0 0 556 141" width="188" height="48" id="logo"><g fill="#FFF"><g stroke="#FFF" stroke-miterlimit="10"><path d="M.5 92.5v-1.8c3 0 6-1.6 6-4.8V59.7c0-3.5-3-5.3-6-5.3v-.9h31.7l1 10.6h-2.1c-.4-2-.9-3.7-1.6-4.8-.7-1.1-1.6-2.1-2.6-2.6-1-.6-2.3-.3-3.6-.5s-3 .4-4.7.4h-1.8c-2.4 0-4.1-.5-4.1 1.2v10.6c0 1.5 1.6 3.2 3.9 3.2h.9c1.3 0 2.4-.6 3.1-.8.8-.2 1.4-.8 1.8-1.2.4-.5.8-.6 1-1.4s.5-2.6.7-2.6h.5V80v-1.5c0-.6-.3-1.2-.5-1.8-.1-.6-.6-1.2-1.1-1.7s-1.3-.3-2.2-.6c-.9-.4-2.3.2-3.9.2h-2.8c-.7 0-1.6-.8-1.6.4v11c0 3.2 3 4.8 6 4.8v1.8H.5zM72.5 59.7c0-3.5-3-5.3-6-5.3v-.9h15v.9c-3 0-6 1.8-6 5.3V78c0 2.3.2 4.4-.2 6.3s-1 3.5-2.2 4.8c-1.2 1.3-2.8 2.4-5.1 3.1-2.2.7-5.2 1.1-8.9 1.1-2.4 0-4.4-.3-6.2-1s-3.3-1.5-4.5-2.7c-1.2-1.2-1.8-2.5-2.4-4.2-.6-1.6-.5-3.4-.5-5.2V58.8c0-2.9-3-4.4-6-4.4v-.9h15v.9c-3 0-3 1.5-3 4.4v19.9c0 1.4-.3 2.8-.2 4.2.1 1.4.4 2.7 1.1 3.9.7 1.1 1.7 2.1 3.2 2.8 1.5.7 3.6 1.1 6.4 1.1 2.6 0 4.6-.4 6.1-1.2 1.5-.8 2.7-1.8 3.5-2.9.8-1.2.8-2.4 1-3.9.3-1.4-.2-2.7-.2-4v-19zM87.5 92.5v-1.8c3 0 6-1.1 6-3.3V59c0-3-3-4.6-6-4.6v-.9h18v.9c-6.5 0-6.7 1.6-6 4.6v28.4c0 1.7 1.4 2.1 4 2.1h2.8c1.8 0 3.4.1 4.8-.2s2.5-.5 3.5-1c1.8-1 3.3-3.8 4.7-8.5l1.6.3-1.8 12.4H87.5zM127.5 92.5v-1.4c3 0 6-1.1 6-3.3V59.5c0-3-3-4.6-6-4.6v-1.4h18v1.4c-7 0-7 1.6-6 4.6v28.4c0 1.7 1.3 1.6 3.9 1.6h2.8c1.8 0 3.4.3 4.8.1s2.5-.4 3.5-.9c1.8-1 3.3-3.7 4.7-8.5l1.6.1-1.8 12.2h-31.5z"/></g><g stroke="#FFF" stroke-miterlimit="10"><path d="M363.5 92.5v-1.8c6 0 6-1.4 6-4.3V58.1c0-2.4 0-3.6-6-3.6v-1H375c1.3 0 2.4-.4 3.1-.5.7 0 1.4-.3 2-.3.6 0 1.2-.2 1.7-.2s1.4-.1 2.4-.1c9 0 13.5 3.9 13.5 11.6 0 1.5-.3 2.9-.8 4.3-.5 1.3-1.4 2.5-2.5 3.5s-2.5 1.8-4.3 2.3c-1.7.6-3.8.8-6.1.8-1.3 0-3.1-.1-4.3-.2-1.2-.1-1.2-.3-4.2-.5v11.7c0 3 3 4.6 6 4.6v1.8h-18zm15.7-38c-1.7 0-3.7 1.1-3.7 3.2v14.5c3 .2 2.7.4 3.9.5 1.2.1 2.8.2 4.3.2 1.3 0 2.6-.3 3.5-.8.9-.5 1.8-1.2 2.4-2 .6-.8 1.1-1.8 1.4-2.9.3-1.1.4-2.7.4-3.9 0-6.3-3.6-9.9-10.7-9.9l-1.5 1.1zM405.5 92.5v-1.8c3 0 6-1.1 6-3.3V59c0-3-3-4.6-6-4.6v-.9h18v.9c-6 0-6 1.5-6 4.6v28.4c0 1.7 1.5 2.1 4.1 2.1h2.8c1.8 0 3.4.1 4.8-.2s2.5-.5 3.5-1c1.8-1 3.3-3.8 4.8-8.5l1.6.3-1.8 12.4h-31.8zM465.5 92.5v-1.8c0-.1.9-.2 1.5-.2.6-.1 1-.2 1.5-.3.5-.1.9-.3 1.2-.5.3-.2.5-.4.5-.6 0-.2-.1-.4-.1-.7s-.1-.7-.3-1.1l-2.7-7.8c-.4-1-1.7-2-3.7-2h-9c-1.5 0-2.4.9-2.8 2l-2 6.4c-.2.4-.8 1-.8 1.7 0 1.8 1.7 2.9 4.7 2.9v2.1h-12v-2.1c0-.1 2-.5 2.8-1.2.8-.7 1.4-1.8 2-3.1l14.4-34.3 1.8.7 14.2 35.7c.6.8 1 1.4 1.3 1.6.1.1 0 .2.5.3.6.1 2 .4 2 .6v1.8h-15zm-5.8-32.3l-5.3 12.6c-.4 1-.7 2.5-.7 2.9 0 .6.7 1.8 2.2 1.8h7.6c1.2 0 1.8-1.1 1.8-1.6 0-.2-.2-1.3-.7-2.4l-4.9-13.3zM486.5 92.5v-1.8c6 0 9-1.8 9-5.5V57.4c0-1.5-1.2-2.2-3.2-2.2-2.6 0-4.9.9-6.5 2.6-1.6 1.7-2.9 4.3-3.7 7.7l-1.9-.5 1.6-12.8c.9.1 1.8.7 2.6.7.8.1 1.6.6 2.4.6H510c.8 0 .9-.5 1.7-.6.9-.1 1.9-.6 1.9-.7v12.6l-.8.2c-.5-6.4-3-9.6-8.9-9.6-2 0-2.3.7-2.3 2v27.7c0 3.7 3 5.5 9 5.5v1.8h-24.1zM522.5 92.5v-1.8c3 0 3-1.3 3-3.9V59.5c0-3.4 0-5.1-3-5.1v-.9h30.8l.5 10.8h-1.9c-.4-2.2-.9-4-1.6-5.2-.7-1.2-1.6-2.1-2.6-2.7-1-.6-2.2-.3-3.5-.4-1.3-.1-2.8.5-4.3.5h-1.7c-3 0-6.6-.4-6.6 1.4v10.8c0 1.2 2.5 2.8 3.5 2.8h2c1 0 1.9-.6 2.8-.7.9-.1 1.6-.6 2.3-1 .7-.4 1.2-.5 1.6-1.4.4-.9.7-3 .9-3h1.9v15h-1.9c-.2-3-.4-3.1-.7-3.9-.3-.9-.8-1.7-1.4-2.2-.6-.5-1.3-.1-2.2-.3-.9-.1-2 .4-3.2.4h-.7c-1.8 0-4.8-.8-4.8.6v11.5c0 2.3 3.6 3 6.8 3h1.9c2.5 0 4.6 0 6.1-.3s2.8-.9 3.8-1.7c1-.8 1.7-1.8 2.3-3 .6-1.2 1.2-2.7 1.8-4.4l1.6.5-1.6 11.9h-31.9z"/></g><path d="M277.7 116.8c-1.4 0-4.7.4-4.7.9V111h-6v14.7c0 4.9 5.2 8.9 10.2 8.9s9.2-4 9.2-8.9c-.1-4.9-3.8-8.9-8.7-8.9m-.3 12.9c-2.2 0-4-1.8-4-4s1.8-4 4-4 4 1.8 4 4-1.8 4-4 4"/><path d="M264.3 130.1v-.4c-.2-.9-.3-1.9-.3-2.8v-10h-6v7.2c0-.4-1.5-.6-2.7-.6-4.9 0-8.7 4-8.7 8.9s4.1 8.9 9 8.9c3 0 5.8-1.5 7.3-3.9 1.5 1.6 3.4 2.9 5.5 3.9l2.5-4.3c-3.1-1-5.7-3.7-6.6-6.9m-8.5 6.4c-2.2 0-4-1.8-4-4s1.8-4 4-4 4 1.8 4 4c-.1 2.2-1.8 4-4 4M258.2 59.7c-1.9-1.9-3.7-3.9-5.8-5.6-4.2-3.3-5.9-7.6-5.8-12.8 0-6.8-2.2-12.9-7-17.9-6.4-6.7-13.9-11.8-22.7-14.8-2.7-.9-5.9-1-8.8-.8-3.5.2-5.4 2.5-6.2 6-.7 3.2-.3 6.3.9 9.3 3 8.1 7.6 15.3 13.7 21.5 5 5 11 7.6 18.1 7.9 2 .1 4 .3 5.9.6 1.2.2 2.6.6 3.5 1.4 3.1 2.9 6 6 9.2 9.2l6.9 7.3c16.8 17.8 33.6 35.4 50.5 53.1 1 1 2 2 3.2 2.8 2 1.2 4.3.9 5.9-.6 1.6-1.5 2.1-3.8.9-5.9-.7-1.3-1.8-2.4-2.8-3.5-17-16.4-34-32.8-51-49.3l-2-2-6.6-5.9z"/><path d="M268.1 73.9l-47.7 49.5c-.4.5-.9.9-1.3 1.4-3.7 3.8-6.1 3.9-10 .6-.2-1.1-.3-2.2-.5-3.3 1.4-1.9 2.7-3.9 4.3-5.5 16-15.4 32.2-30.6 48.2-45.9.7-.6 1.3-1.3 2.3-2.3l6.4-5.9c3-2.9 6-5.8 9.1-8.7 1.6-1.5 2.3-3.2 2-5.3-.2-1.6-.4-3.2-.6-4.7-.6-3.6.5-6.4 3.1-9 12-11.3 23.7-22.5 33.8-32.1.6-.5 1.1-1.1 1.6-1.7.6-.1 1.3-.2 1.9-.3 1.4 1.8.1 2.9-1.1 4-9 8.9-18 17.9-27 26.8-.7.7-1.5 1.3-1.9 2.1-.3.8-.1 1.9-.1 2.8.9 0 1.9.2 2.6-.1.8-.4 1.5-1.2 2.2-1.8 9-8.9 17.9-17.8 26.9-26.6 1-1 2.2-3 3.6-1.5 1.5 1.5-.5 2.6-1.5 3.6-9.7 9.6-19.4 19.2-29 28.9-.8.8-1.6 1.6-2.1 2.6-.3.6-.2 1.7.2 2.1.4.4 1.5.6 2.1.3 1-.4 1.8-1.2 2.6-2l29.1-28.8c1-1 2.2-3.2 3.8-1.5 1.4 1.4-.6 2.6-1.6 3.6-8.8 8.8-17.7 17.5-26.5 26.4-1.3 1.3-4.1 2.9-2 5 1.9 1.9 3.5-.7 4.8-2 8.9-8.8 17.8-17.7 26.7-26.5 1-1 2.2-2.9 3.7-1.5 1.5 1.5-.5 2.6-1.5 3.6-10.7 11.2-21.5 22.2-32.2 33.4-2.7 2.8-5.7 3.9-9.4 3.2-.6-.1-1.3-.2-1.9-.3-3.8-1-6.8 0-9.3 3.1-2 2.5-4.4 4.7-6.8 7.2l-7 7.1z"/><path stroke="#FFF" stroke-miterlimit="10" d="M336.042 67.737l5.586 5.586-5.586 5.586-5.586-5.587zM197.548 67.725l5.586 5.586-5.586 5.588-5.586-5.587z" stroke-width=".99999"/><path stroke="#FFF" stroke-miterlimit="10" d="M197.548 67.725l5.586 5.586-5.586 5.588-5.586-5.587z" stroke-width=".99999"/></g></svg></svg>