<?xml version="1.0" encoding="utf-8"?>
<svg version="1.1" id="Layer_1" xmlns="http://www.w3.org/2000/svg" xmlns:xlink="http://www.w3.org/1999/xlink" x="0px" y="0px"
	 viewBox="0 0 556 141" enable-background="new 0 0 556 141" xml:space="preserve" width="188" height="48">
<g fill="#FFFFFF">
	<g>
		<path stroke="#FFFFFF" stroke-miterlimit="10" d="M0.5,92.5v-1.8c3,0,6-1.6,6-4.8V59.7c0-3.5-3-5.3-6-5.3v-0.9h31.7l1,10.6l-2.1,0
			c-0.4-2-0.9-3.7-1.6-4.8c-0.7-1.1-1.6-2.1-2.6-2.6c-1-0.6-2.3-0.3-3.6-0.5s-3,0.4-4.7,0.4h-1.8c-2.4,0-4.1-0.5-4.1,1.2v10.6
			c0,1.5,1.6,3.2,3.9,3.2h0.9c1.3,0,2.4-0.6,3.1-0.8c0.8-0.2,1.4-0.8,1.8-1.2c0.4-0.5,0.8-0.6,1-1.4s0.5-2.6,0.7-2.6h0.5V80l0,0
			v-1.5c0-0.6-0.3-1.2-0.5-1.8c-0.1-0.6-0.6-1.2-1.1-1.7s-1.3-0.3-2.2-0.6c-0.9-0.4-2.3,0.2-3.9,0.2h-2.8c-0.7,0-1.6-0.8-1.6,0.4v11
			c0,3.2,3,4.8,6,4.8v1.8H0.5z"/>
		<path stroke="#FFFFFF" stroke-miterlimit="10" d="M72.5,59.7c0-3.5-3-5.3-6-5.3v-0.9h15v0.9c-3,0-6,1.8-6,5.3V78
			c0,2.3,0.2,4.4-0.2,6.3s-1,3.5-2.2,4.8c-1.2,1.3-2.8,2.4-5.1,3.1c-2.2,0.7-5.2,1.1-8.9,1.1c-2.4,0-4.4-0.3-6.2-1s-3.3-1.5-4.5-2.7
			c-1.2-1.2-1.8-2.5-2.4-4.2c-0.6-1.6-0.5-3.4-0.5-5.2V58.8c0-2.9-3-4.4-6-4.4v-0.9h15v0.9c-3,0-3,1.5-3,4.4v19.9
			c0,1.4-0.3,2.8-0.2,4.2c0.1,1.4,0.4,2.7,1.1,3.9c0.7,1.1,1.7,2.1,3.2,2.8c1.5,0.7,3.6,1.1,6.4,1.1c2.6,0,4.6-0.4,6.1-1.2
			c1.5-0.8,2.7-1.8,3.5-2.9c0.8-1.2,0.8-2.4,1-3.9c0.3-1.4-0.2-2.7-0.2-4V59.7z"/>
		<path stroke="#FFFFFF" stroke-miterlimit="10" d="M87.5,92.5v-1.8c3,0,6-1.1,6-3.3V59c0-3-3-4.6-6-4.6v-0.9h18v0.9c-6.5,0-6.7,1.6-6,4.6v28.4c0,1.7,1.4,2.1,4,2.1h2.8c1.8,0,3.4,0.1,4.8-0.2s2.5-0.5,3.5-1c1.8-1,3.3-3.8,4.7-8.5l1.6,0.3
			l-1.8,12.4H87.5z"/>

		<path stroke="#FFFFFF" stroke-miterlimit="10" d="M127.5,92.5v-1.4c3,0,6-1.1,6-3.3V59.5c0-3-3-4.6-6-4.6v-1.4h18v1.4
	c-7,0-7,1.6-6,4.6v28.4c0,1.7,1.3,1.6,3.9,1.6h2.8c1.8,0,3.4,0.3,4.8,0.1s2.5-0.4,3.5-0.9c1.8-1,3.3-3.7,4.7-8.5l1.6,0.1l-1.8,12.2
	H127.5z"/>
	</g>
	<g>
		<path stroke="#FFFFFF" stroke-miterlimit="10" d="M363.5,92.5v-1.8c6,0,6-1.4,6-4.3V58.1c0-2.4,0-3.6-6-3.6v-1H375
			c1.3,0,2.4-0.4,3.1-0.5c0.7,0,1.4-0.3,2-0.3c0.6,0,1.2-0.2,1.7-0.2s1.4-0.1,2.4-0.1c9,0,13.5,3.9,13.5,11.6c0,1.5-0.3,2.9-0.8,4.3
			c-0.5,1.3-1.4,2.5-2.5,3.5s-2.5,1.8-4.3,2.3c-1.7,0.6-3.8,0.8-6.1,0.8c-1.3,0-3.1-0.1-4.3-0.2c-1.2-0.1-1.2-0.3-4.2-0.5v11.7
			c0,3,3,4.6,6,4.6v1.8H363.5z M379.2,54.5c-1.7,0-3.7,1.1-3.7,3.2v14.5c3,0.2,2.7,0.4,3.9,0.5c1.2,0.1,2.8,0.2,4.3,0.2
			c1.3,0,2.6-0.3,3.5-0.8c0.9-0.5,1.8-1.2,2.4-2c0.6-0.8,1.1-1.8,1.4-2.9c0.3-1.1,0.4-2.7,0.4-3.9c0-6.3-3.6-9.9-10.7-9.9
			L379.2,54.5z"/>
		<path stroke="#FFFFFF" stroke-miterlimit="10" d="M405.5,92.5v-1.8c3,0,6-1.1,6-3.3V59c0-3-3-4.6-6-4.6v-0.9h18v0.9
			c-6,0-6,1.5-6,4.6v28.4c0,1.7,1.5,2.1,4.1,2.1h2.8c1.8,0,3.4,0.1,4.8-0.2s2.5-0.5,3.5-1c1.8-1,3.3-3.8,4.8-8.5l1.6,0.3l-1.8,12.4
			H405.5z"/>
		<path stroke="#FFFFFF" stroke-miterlimit="10" d="M465.5,92.5v-1.8c0-0.1,0.9-0.2,1.5-0.2c0.6-0.1,1-0.2,1.5-0.3
			c0.5-0.1,0.9-0.3,1.2-0.5c0.3-0.2,0.5-0.4,0.5-0.6c0-0.2-0.1-0.4-0.1-0.7s-0.1-0.7-0.3-1.1l-2.7-7.8c-0.4-1-1.7-2-3.7-2h-9
			c-1.5,0-2.4,0.9-2.8,2l-2,6.4c-0.2,0.4-0.8,1-0.8,1.7c0,1.8,1.7,2.9,4.7,2.9v2.1h-12v-2.1c0-0.1,2-0.5,2.8-1.2
			c0.8-0.7,1.4-1.8,2-3.1l14.4-34.3l1.8,0.7l14.2,35.7c0.6,0.8,1,1.4,1.3,1.6c0.1,0.1,0,0.2,0.5,0.3c0.6,0.1,2,0.4,2,0.6v1.8H465.5z
			 M459.7,60.2l-5.3,12.6c-0.4,1-0.7,2.5-0.7,2.9c0,0.6,0.7,1.8,2.2,1.8h7.6c1.2,0,1.8-1.1,1.8-1.6c0-0.2-0.2-1.3-0.7-2.4
			L459.7,60.2z"/>
		<path stroke="#FFFFFF" stroke-miterlimit="10" d="M486.5,92.5v-1.8c6,0,9-1.8,9-5.5V57.4c0-1.5-1.2-2.2-3.2-2.2
			c-2.6,0-4.9,0.9-6.5,2.6c-1.6,1.7-2.9,4.3-3.7,7.7l-1.9-0.5l1.6-12.8c0.9,0.1,1.8,0.7,2.6,0.7c0.8,0.1,1.6,0.6,2.4,0.6h23.2
			c0.8,0,0.9-0.5,1.7-0.6c0.9-0.1,1.9-0.6,1.9-0.7v12.6l-0.8,0.2c-0.5-6.4-3-9.6-8.9-9.6c-2,0-2.3,0.7-2.3,2v27.7c0,3.7,3,5.5,9,5.5
			v1.8H486.5z"/>
		<path stroke="#FFFFFF" stroke-miterlimit="10" d="M522.5,92.5v-1.8c3,0,3-1.3,3-3.9V59.5c0-3.4,0-5.1-3-5.1v-0.9h30.8l0.5,10.8
			l-1.9,0c-0.4-2.2-0.9-4-1.6-5.2c-0.7-1.2-1.6-2.1-2.6-2.7c-1-0.6-2.2-0.3-3.5-0.4c-1.3-0.1-2.8,0.5-4.3,0.5h-1.7
			c-3,0-6.6-0.4-6.6,1.4v10.8c0,1.2,2.5,2.8,3.5,2.8h2c1,0,1.9-0.6,2.8-0.7c0.9-0.1,1.6-0.6,2.3-1c0.7-0.4,1.2-0.5,1.6-1.4
			c0.4-0.9,0.7-3,0.9-3h1.9v15h-1.9c-0.2-3-0.4-3.1-0.7-3.9c-0.3-0.9-0.8-1.7-1.4-2.2c-0.6-0.5-1.3-0.1-2.2-0.3
			c-0.9-0.1-2,0.4-3.2,0.4h-0.7c-1.8,0-4.8-0.8-4.8,0.6v11.5c0,2.3,3.6,3,6.8,3h1.9c2.5,0,4.6,0,6.1-0.3s2.8-0.9,3.8-1.7
			c1-0.8,1.7-1.8,2.3-3c0.6-1.2,1.2-2.7,1.8-4.4l1.6,0.5l-1.6,11.9H522.5z"/>
	</g>
	<g>
		<path id="b_4_" d="M277.7,116.8c-1.4,0-4.7,0.4-4.7,0.9V111h-6v14.7c0,4.9,5.2,8.9,10.2,8.9s9.2-4,9.2-8.9
			C286.3,120.8,282.6,116.8,277.7,116.8 M277.4,129.7c-2.2,0-4-1.8-4-4s1.8-4,4-4c2.2,0,4,1.8,4,4S279.6,129.7,277.4,129.7"/>
		<path id="d_4_" d="M264.3,130.1c0-0.1,0-0.2,0-0.4c-0.2-0.9-0.3-1.9-0.3-2.8v-10h-6v7.2c0-0.4-1.5-0.6-2.7-0.6 c-4.9,0-8.7,4-8.7,8.9c0,4.9,4.1,8.9,9,8.9c3,0,5.8-1.5,7.3-3.9c1.5,1.6,3.4,2.9,5.5,3.9l2.5-4.3l0,0
			C267.8,136,265.2,133.3,264.3,130.1 M255.8,136.5c-2.2,0-4-1.8-4-4c0-2.2,1.8-4,4-4c2.2,0,4,1.8,4,4
			C259.7,134.7,258,136.5,255.8,136.5"/>
	</g>
	<g>
		<path d="M258.2,59.7c-1.9-1.9-3.7-3.9-5.8-5.6c-4.2-3.3-5.9-7.6-5.8-12.8c0-6.8-2.2-12.9-7-17.9c-6.4-6.7-13.9-11.8-22.7-14.8
			c-2.7-0.9-5.9-1-8.8-0.8c-3.5,0.2-5.4,2.5-6.2,6c-0.7,3.2-0.3,6.3,0.9,9.3c3,8.1,7.6,15.3,13.7,21.5c5,5,11,7.6,18.1,7.9
			c2,0.1,4,0.3,5.9,0.6c1.2,0.2,2.6,0.6,3.5,1.4c3.1,2.9,6,6,9.2,9.2l6.9,7.3c16.8,17.8,33.6,35.4,50.5,53.1c1,1,2,2,3.2,2.8
			c2,1.2,4.3,0.9,5.9-0.6c1.6-1.5,2.1-3.8,0.9-5.9c-0.7-1.3-1.8-2.4-2.8-3.5c-17-16.4-34-32.8-51-49.3c-0.6-0.6-1.2-1.2-2-2
			L258.2,59.7z"/>
		<path d="M268.1,73.9c-15.9,16.5-31.8,33-47.7,49.5c-0.4,0.5-0.9,0.9-1.3,1.4c-3.7,3.8-6.1,3.9-10,0.6c-0.2-1.1-0.3-2.2-0.5-3.3
			c1.4-1.9,2.7-3.9,4.3-5.5c16-15.4,32.2-30.6,48.2-45.9c0.7-0.6,1.3-1.3,2.3-2.3l6.4-5.9c3-2.9,6-5.8,9.1-8.7
			c1.6-1.5,2.3-3.2,2-5.3c-0.2-1.6-0.4-3.2-0.6-4.7c-0.6-3.6,0.5-6.4,3.1-9c12-11.3,23.7-22.5,33.8-32.1c0.6-0.5,1.1-1.1,1.6-1.7
			c0.6-0.1,1.3-0.2,1.9-0.3c1.4,1.8,0.1,2.9-1.1,4c-9,8.9-18,17.9-27,26.8c-0.7,0.7-1.5,1.3-1.9,2.1c-0.3,0.8-0.1,1.9-0.1,2.8
			c0.9,0,1.9,0.2,2.6-0.1c0.8-0.4,1.5-1.2,2.2-1.8c9-8.9,17.9-17.8,26.9-26.6c1-1,2.2-3,3.6-1.5c1.5,1.5-0.5,2.6-1.5,3.6
			c-9.7,9.6-19.4,19.2-29,28.9c-0.8,0.8-1.6,1.6-2.1,2.6c-0.3,0.6-0.2,1.7,0.2,2.1c0.4,0.4,1.5,0.6,2.1,0.3c1-0.4,1.8-1.2,2.6-2
			c9.7-9.6,19.4-19.2,29.1-28.8c1-1,2.2-3.2,3.8-1.5c1.4,1.4-0.6,2.6-1.6,3.6c-8.8,8.8-17.7,17.5-26.5,26.4c-1.3,1.3-4.1,2.9-2,5
			c1.9,1.9,3.5-0.7,4.8-2c8.9-8.8,17.8-17.7,26.7-26.5c1-1,2.2-2.9,3.7-1.5c1.5,1.5-0.5,2.6-1.5,3.6c-10.7,11.2-21.5,22.2-32.2,33.4
			c-2.7,2.8-5.7,3.9-9.4,3.2c-0.6-0.1-1.3-0.2-1.9-0.3c-3.8-1-6.8,0-9.3,3.1c-2,2.5-4.4,4.7-6.8,7.2L268.1,73.9z"/>
	</g>

		<rect x="332.1" y="69.4" transform="matrix(0.7071 0.7071 -0.7071 0.7071 150.2865 -216.1635)" stroke="#FFFFFF" stroke-miterlimit="10" width="7.9" height="7.9"/>

		<rect x="193.6" y="69.4" transform="matrix(0.7071 0.7071 -0.7071 0.7071 109.7261 -118.2419)" stroke="#FFFFFF" stroke-miterlimit="10" width="7.9" height="7.9"/>

		<rect x="193.6" y="69.4" transform="matrix(0.7071 0.7071 -0.7071 0.7071 109.7261 -118.2419)" stroke="#FFFFFF" stroke-miterlimit="10" width="7.9" height="7.9"/>
</g>
</svg>
